<?xml version="1.0" encoding="utf-8"?>
<!-- Generator: Adobe Illustrator 27.5.0, SVG Export Plug-In . SVG Version: 6.00 Build 0)  -->
<svg version="1.1" id="Layer_1" xmlns="http://www.w3.org/2000/svg" xmlns:xlink="http://www.w3.org/1999/xlink" x="0px" y="0px"
	 viewBox="0 0 1080 1080" style="enable-background:new 0 0 1080 1080;" xml:space="preserve">
<style type="text/css">
	.st0{fill:#FFFFFF;}
	.st1{fill:#010101;}
</style>
<path class="st0" d="M888.79,513.99c-1.84-14.58-4.57-28.89-8.15-42.87c-1.53-5.99-3.23-11.92-5.07-17.78
	c-6.28-20.1-14.32-39.41-23.95-57.77c-2.26-4.32-4.62-8.59-7.05-12.8c-8.11-14.03-17.16-27.43-27.08-40.14
	c-13.01-16.7-27.49-32.2-43.26-46.28c-0.71-0.65-1.43-1.29-2.15-1.91c-15.22-13.39-31.61-25.48-48.99-36.08
	c-18.12-11.08-37.3-20.57-57.38-28.25c-19.79-7.57-40.44-13.42-61.76-17.34l-14.4,81.67l-0.66,3.74
	c16.29,3.03,32.06,7.56,47.15,13.45c15.3,5.94,29.91,13.28,43.68,21.86c13.81,8.59,26.78,18.42,38.74,29.33
	c6.92,6.31,13.49,12.98,19.7,19.97c4.47,5.05,8.76,10.28,12.84,15.65c9.64,12.67,18.16,26.23,25.42,40.55
	c5.22,10.33,9.81,21.06,13.69,32.13c1.37,3.93,2.65,7.91,3.85,11.93c1.25,4.21,2.37,8.48,3.41,12.78H282.6
	c1.04-4.3,2.16-8.57,3.41-12.79c1.2-4.02,2.48-8,3.85-11.93c3.88-11.07,8.46-21.8,13.7-32.13c7.25-14.32,15.77-27.9,25.41-40.57
	c4.08-5.38,8.36-10.6,12.84-15.64c6.23-6.99,12.81-13.67,19.72-19.99c11.96-10.9,24.93-20.74,38.74-29.31
	c13.77-8.58,28.38-15.91,43.68-21.87c15.09-5.87,30.86-10.4,47.15-13.43l-0.66-3.74l-14.4-81.67c-21.32,3.92-41.97,9.75-61.76,17.34
	c-20.09,7.69-39.28,17.16-57.38,28.24c-17.38,10.62-33.77,22.7-48.99,36.1c-0.72,0.62-1.44,1.26-2.15,1.91
	c-15.77,14.08-30.25,29.58-43.26,46.29c-9.92,12.71-18.97,26.12-27.08,40.14c-2.43,4.2-4.78,8.48-7.05,12.8
	c-9.62,18.36-17.66,37.68-23.95,57.78c-1.85,5.86-3.54,11.78-5.07,17.76c-3.58,13.98-6.31,28.3-8.15,42.87
	c-1.85,14.59-2.8,29.47-2.8,44.56v0.89c0.01,5.38,0.16,10.73,0.39,16.05c0.99,20.68,3.75,40.89,8.15,60.48
	c0.89,3.96,1.85,7.9,2.87,11.8c4.12,15.75,9.3,31.07,15.48,45.88c6.1,14.69,13.19,28.88,21.18,42.46c2.12,3.65,4.32,7.25,6.58,10.8
	c10.7,16.83,22.79,32.7,36.11,47.42c9.64,10.66,19.91,20.71,30.77,30.12c4.08,3.53,8.24,6.96,12.48,10.3
	c15.39,12.14,31.81,23.03,49.12,32.48l24.7-42.79l18.67-32.34c-12.92-6.94-25.2-14.91-36.72-23.81c-11.66-9-22.55-18.95-32.54-29.75
	c-0.75-0.81-1.5-1.61-2.24-2.43c-9.2-10.18-17.62-21.08-25.18-32.61c-8.18-12.48-15.33-25.7-21.33-39.55
	c-2.31-5.31-4.44-10.7-6.4-16.18c-3.14-8.75-5.82-17.72-8.03-26.88c-2.89-11.94-4.91-24.21-6.11-36.72h527.23
	c-1.2,12.52-3.23,24.79-6.11,36.73c-2.21,9.16-4.88,18.13-8.03,26.88c-1.95,5.48-4.09,10.87-6.4,16.18
	c-6,13.84-13.15,27.06-21.33,39.55c-7.56,11.54-15.98,22.44-25.18,32.61c-0.74,0.82-1.49,1.63-2.22,2.43
	c-10.01,10.8-20.89,20.75-32.54,29.75c-11.52,8.9-23.79,16.87-36.72,23.81l18.67,32.34l24.7,42.78
	c17.31-9.46,33.73-20.33,49.12-32.47c4.25-3.34,8.41-6.78,12.48-10.3c10.86-9.41,21.13-19.46,30.76-30.12
	c13.33-14.72,25.42-30.59,36.12-47.42c2.26-3.55,4.46-7.15,6.58-10.8c7.98-13.59,15.06-27.77,21.18-42.45
	c6.18-14.81,11.37-30.14,15.48-45.89c1.02-3.91,1.98-7.84,2.86-11.8c4.42-19.59,7.18-39.8,8.17-60.48
	c0.24-5.32,0.38-10.67,0.4-16.05v-0.89C891.6,543.46,890.65,528.58,888.79,513.99z"/>
</svg>
