<svg width="24" height="24" viewBox="0 0 24 24" fill="none" xmlns="http://www.w3.org/2000/svg">
<path d="M6.9955 7.00627C6.60497 7.3968 6.60497 8.02996 6.9955 8.42049L10.5807 12.0056L6.9955 15.5908C6.60497 15.9813 6.60497 16.6145 6.9955 17.005C7.38602 17.3955 8.01919 17.3955 8.40971 17.005L11.9949 13.4199L15.58 17.005C15.9705 17.3955 16.6037 17.3955 16.9942 17.005C17.3847 16.6145 17.3847 15.9813 16.9942 15.5908L13.4091 12.0056L16.9942 8.4205C17.3847 8.02998 17.3847 7.39681 16.9942 7.00629C16.6037 6.61576 15.9705 6.61576 15.58 7.00629L11.9949 10.5914L8.40971 7.00627C8.01919 6.61575 7.38602 6.61575 6.9955 7.00627Z" fill="#323338"/>
</svg>
