<svg width="24" height="24" viewBox="0 0 24 24" fill="none" xmlns="http://www.w3.org/2000/svg">
<path fill-rule="evenodd" clip-rule="evenodd" d="M4.26684 6.24223C2.20508 4.40955 3.50138 1 6.25994 1H17.7391C20.4977 1 21.794 4.40955 19.7322 6.24223L15.3352 10.1507C15.1217 10.3405 14.9995 10.6125 14.9995 10.8981V21.0858C14.9995 22.8676 12.8453 23.7599 11.5853 22.5L9.58532 20.5C9.21025 20.1249 8.99954 19.6162 8.99954 19.0858V10.8981C8.99954 10.6125 8.87739 10.3405 8.6639 10.1507L4.26684 6.24223ZM6.25994 3C5.34042 3 4.90832 4.13652 5.59557 4.74741L9.99263 8.6559C10.6331 9.22521 10.9995 10.0412 10.9995 10.8981V19.0858L12.9995 21.0858V10.8981C12.9995 10.0412 13.366 9.22521 14.0064 8.6559L18.4035 4.74741C19.0908 4.13652 18.6587 3 17.7391 3H6.25994Z" fill="#323338"/>
</svg>
