<svg width="22" height="22" viewBox="0 0 22 22" fill="none" xmlns="http://www.w3.org/2000/svg">
<path d="M0 11C0 9.47833 0.28875 8.04833 0.86625 6.71C1.44375 5.37167 2.2275 4.2075 3.2175 3.2175C4.2075 2.2275 5.37167 1.44375 6.71 0.86625C8.04833 0.28875 9.47833 0 11 0C11.495 0 11.9808 0.0320833 12.4575 0.09625C12.9342 0.160417 13.4017 0.256667 13.86 0.385C13.5667 0.66 13.3054 0.9625 13.0763 1.2925C12.8471 1.6225 12.6592 1.97083 12.5125 2.3375C12.2558 2.30083 12.0037 2.26875 11.7563 2.24125C11.5087 2.21375 11.2567 2.2 11 2.2C8.54333 2.2 6.4625 3.0525 4.7575 4.7575C3.0525 6.4625 2.2 8.54333 2.2 11C2.2 13.4567 3.0525 15.5375 4.7575 17.2425C6.4625 18.9475 8.54333 19.8 11 19.8C13.4567 19.8 15.5375 18.9475 17.2425 17.2425C18.9475 15.5375 19.8 13.4567 19.8 11C19.8 10.7433 19.7862 10.4913 19.7587 10.2437C19.7313 9.99625 19.6992 9.74417 19.6625 9.4875C20.0292 9.34083 20.3775 9.15292 20.7075 8.92375C21.0375 8.69458 21.34 8.43333 21.615 8.14C21.7433 8.59833 21.8396 9.06583 21.9037 9.5425C21.9679 10.0192 22 10.505 22 11C22 12.5217 21.7113 13.9517 21.1337 15.29C20.5562 16.6283 19.7725 17.7925 18.7825 18.7825C17.7925 19.7725 16.6283 20.5562 15.29 21.1337C13.9517 21.7113 12.5217 22 11 22C9.47833 22 8.04833 21.7113 6.71 21.1337C5.37167 20.5562 4.2075 19.7725 3.2175 18.7825C2.2275 17.7925 1.44375 16.6283 0.86625 15.29C0.28875 13.9517 0 12.5217 0 11ZM17.6 7.7C16.6833 7.7 15.9042 7.37917 15.2625 6.7375C14.6208 6.09583 14.3 5.31667 14.3 4.4C14.3 3.48333 14.6208 2.70417 15.2625 2.0625C15.9042 1.42083 16.6833 1.1 17.6 1.1C18.5167 1.1 19.2958 1.42083 19.9375 2.0625C20.5792 2.70417 20.9 3.48333 20.9 4.4C20.9 5.31667 20.5792 6.09583 19.9375 6.7375C19.2958 7.37917 18.5167 7.7 17.6 7.7Z" fill="#323338"/>
</svg>
