<svg width="24" height="24" viewBox="0 0 24 24" fill="none" xmlns="http://www.w3.org/2000/svg">
<path fill-rule="evenodd" clip-rule="evenodd" d="M11 4C11 2.34315 9.65685 1 8 1H4C2.34315 1 1 2.34315 1 4V20C1 21.6569 2.34315 23 4 23H8C9.65685 23 11 21.6569 11 20V4ZM9 4C9 3.44772 8.55228 3 8 3H4C3.44772 3 3 3.44772 3 4V20C3 20.5523 3.44772 21 4 21H8C8.55228 21 9 20.5523 9 20V4Z" fill="#323338"/>
<path fill-rule="evenodd" clip-rule="evenodd" d="M23 4C23 2.34315 21.6569 1 20 1H16C14.3431 1 13 2.34315 13 4V20C13 21.6569 14.3431 23 16 23H20C21.6569 23 23 21.6569 23 20V4ZM21 4C21 3.44772 20.5523 3 20 3H16C15.4477 3 15 3.44772 15 4V20C15 20.5523 15.4477 21 16 21H20C20.5523 21 21 20.5523 21 20V4Z" fill="#323338"/>
</svg>
