<svg width="24" height="24" viewBox="0 0 24 24" fill="none" xmlns="http://www.w3.org/2000/svg">
<path d="M10.9995 7C10.9995 9.20914 9.20865 11 6.99951 11C4.79037 11 2.99951 9.20914 2.99951 7C2.99951 4.79086 4.79037 3 6.99951 3C9.20865 3 10.9995 4.79086 10.9995 7ZM4.97667 7C4.97667 8.11719 5.88233 9.02284 6.99951 9.02284C8.1167 9.02284 9.02236 8.11719 9.02236 7C9.02236 5.88281 8.1167 4.97716 6.99951 4.97716C5.88233 4.97716 4.97667 5.88281 4.97667 7Z" fill="#323338"/>
<path fill-rule="evenodd" clip-rule="evenodd" d="M2.37113 14.2378C3.54322 13.3886 5.09702 13 6.99951 13C8.902 13 10.4558 13.3886 11.6279 14.2378C12.8183 15.1004 13.4909 16.3477 13.7945 17.8079C14.1806 19.6647 12.5703 21 10.9995 21H2.99951C1.42873 21 -0.181609 19.6647 0.204474 17.8079C0.508114 16.3477 1.1807 15.1004 2.37113 14.2378ZM3.54463 15.8574C2.84847 16.3618 2.39024 17.1203 2.16259 18.2151C2.12376 18.4018 2.1757 18.5729 2.31779 18.7223C2.46992 18.8824 2.71668 19 2.99951 19H10.9995C11.2823 19 11.5291 18.8824 11.6812 18.7223C11.8233 18.5729 11.8753 18.4018 11.8364 18.2151C11.6088 17.1203 11.1506 16.3618 10.4544 15.8574C9.73991 15.3397 8.65136 15 6.99951 15C5.34766 15 4.25912 15.3397 3.54463 15.8574Z" fill="#323338"/>
<path d="M20.9995 7C20.9995 9.20914 19.2087 11 16.9995 11C14.7904 11 12.9995 9.20914 12.9995 7C12.9995 4.79086 14.7904 3 16.9995 3C19.2087 3 20.9995 4.79086 20.9995 7ZM14.9767 7C14.9767 8.11719 15.8823 9.02284 16.9995 9.02284C18.1167 9.02284 19.0224 8.11719 19.0224 7C19.0224 5.88281 18.1167 4.97716 16.9995 4.97716C15.8823 4.97716 14.9767 5.88281 14.9767 7Z" fill="#323338"/>
<path d="M14.5356 13.2689C13.9342 13.4165 13.7243 14.1168 14.0642 14.6344L14.107 14.6995C14.3588 15.0829 14.8385 15.239 15.2886 15.1501C15.7782 15.0534 16.3446 15 16.9995 15C18.6514 15 19.7399 15.3397 20.4544 15.8574C21.1506 16.3618 21.6088 17.1203 21.8364 18.2151C21.8753 18.4018 21.8233 18.5729 21.6812 18.7223C21.5291 18.8824 21.2824 19 20.9995 19H15.9996C15.4473 19 14.9996 19.4477 14.9996 20C14.9996 20.5523 15.4473 21 15.9996 21H20.9995C22.5703 21 24.1806 19.6647 23.7946 17.8079C23.4909 16.3477 22.8183 15.1004 21.6279 14.2378C20.4558 13.3886 18.902 13 16.9995 13C16.0989 13 15.2764 13.0871 14.5356 13.2689Z" fill="#323338"/>
</svg>
