<svg width="24" height="24" viewBox="0 0 24 24" fill="none" xmlns="http://www.w3.org/2000/svg">
<path fill-rule="evenodd" clip-rule="evenodd" d="M3.39648 11.6315C3.39648 16.6021 7.42592 20.6315 12.3965 20.6315C15.6853 20.6315 18.565 18.8664 20.1353 16.2301C16.728 17.3289 12.6916 16.7548 9.98227 14.0455C7.25146 11.3147 6.72548 7.28421 7.86648 3.893C5.20642 5.47933 3.39648 8.38938 3.39648 11.6315ZM21.1864 13.5852C22.0119 13.1021 23.2544 13.6488 22.9995 14.5706C21.7138 19.2188 17.4537 22.6315 12.3965 22.6315C6.32135 22.6315 1.39648 17.7067 1.39648 11.6315C1.39648 6.5888 4.93478 2.25851 9.61473 1.00005C10.5388 0.751563 11.064 1.99384 10.5635 2.80941C8.69971 5.84662 8.83139 10.0662 11.3965 12.6313C13.9314 15.1662 18.1359 15.3703 21.1864 13.5852Z" fill="#323338"/>
</svg>
