<svg width="24" height="24" viewBox="0 0 24 24" fill="none" xmlns="http://www.w3.org/2000/svg">
<path fill-rule="evenodd" clip-rule="evenodd" d="M10.1511 2.36496C10.8311 0.713627 13.1699 0.713636 13.8499 2.36497L16.1861 8.03867L21.426 8.3469C23.2637 8.455 23.9917 10.7787 22.5442 11.9161L18.1821 15.3434L19.9207 20.2694C20.5652 22.0956 18.4975 23.6803 16.9017 22.5832L12.0005 19.2136L7.0993 22.5832C5.50352 23.6803 3.43574 22.0956 4.08026 20.2694L5.81887 15.3434L1.45683 11.9161C0.00928378 10.7787 0.737289 8.455 2.57503 8.3469L7.81491 8.03867L10.1511 2.36496ZM12.0005 3.12646L9.18608 9.96147L2.69248 10.3434L8.18213 14.6567L5.96624 20.9351L12.0005 16.7865L18.0348 20.9351L15.8189 14.6567L21.3085 10.3434L14.8149 9.96147L12.0005 3.12646Z" fill="#323338"/>
</svg>
