<svg width="24" height="24" viewBox="0 0 24 24" fill="none" xmlns="http://www.w3.org/2000/svg">
<path fill-rule="evenodd" clip-rule="evenodd" d="M23 21.9999C23 22.5522 22.5523 22.9999 22 22.9999H2C1.44772 22.9999 1 22.5522 1 21.9999C1 21.4477 1.44772 20.9999 2 20.9999H22C22.5523 20.9999 23 21.4477 23 21.9999Z" fill="#323338"/>
<path fill-rule="evenodd" clip-rule="evenodd" d="M10.6901 1.31186C11.4419 0.660367 12.5581 0.660369 13.3099 1.31186L18.1291 5.48857C19.5282 6.70111 18.6707 8.99995 16.8193 8.99995H15V16.9999C15 18.1045 14.1046 18.9999 13 18.9999H11C9.89543 18.9999 9 18.1045 9 16.9999V8.99995H7.18073C5.32932 8.99995 4.47178 6.70111 5.87086 5.48857L10.6901 1.31186ZM12.6549 3.39085C12.2791 3.0651 11.7209 3.0651 11.3451 3.39085L7.18073 6.99995L9.5 6.99995C10.3284 6.99995 11 7.67152 11 8.49995V16.9999H13V8.49995C13 7.67152 13.6716 6.99995 14.5 6.99995H16.8193L12.6549 3.39085Z" fill="#323338"/>
</svg>
