<svg width="24" height="24" viewBox="0 0 24 24" fill="none" xmlns="http://www.w3.org/2000/svg">
<path fill-rule="evenodd" clip-rule="evenodd" d="M10.6779 2.30337C11.5103 1.89888 12.4901 1.89888 13.3226 2.30337L20.6381 5.85815C22.4543 6.74064 22.4543 9.25936 20.6381 10.1419L13.3226 13.6966C12.4901 14.1011 11.5103 14.1011 10.6779 13.6966L3.36232 10.1419C1.5462 9.25936 1.5462 6.74064 3.36232 5.85815L10.6779 2.30337ZM12.441 4.01685C12.1635 3.88202 11.8369 3.88202 11.5594 4.01685L4.24389 7.57163C3.88066 7.74813 3.88066 8.25187 4.24389 8.42837L11.5594 11.9831C11.8369 12.118 12.1635 12.118 12.441 11.9831L19.7566 8.42837C20.1198 8.25187 20.1198 7.74813 19.7566 7.57163L12.441 4.01685Z" fill="#323338"/>
<path d="M2.10579 16.8172C2.35278 16.3232 2.95345 16.123 3.44743 16.37L11.553 20.4227C11.8345 20.5635 12.1659 20.5635 12.4474 20.4227L20.553 16.37C21.047 16.123 21.6477 16.3232 21.8946 16.8172C22.1416 17.3111 21.9414 17.9118 21.4474 18.1588L13.3419 22.2116C12.4973 22.6339 11.5032 22.6339 10.6586 22.2116L2.55301 18.1588C2.05903 17.9118 1.8588 17.3111 2.10579 16.8172Z" fill="#323338"/>
<path d="M3.44766 12.1058C2.95368 11.8588 2.35301 12.059 2.10602 12.553C1.85903 13.047 2.05926 13.6477 2.55323 13.8946L10.6588 17.9474C11.5034 18.3697 12.4975 18.3697 13.3421 17.9474L21.4477 13.8946C21.9416 13.6477 22.1419 13.047 21.8949 12.553C21.6479 12.059 21.0472 11.8588 20.5532 12.1058L12.4477 16.1586C12.1661 16.2993 11.8348 16.2993 11.5532 16.1586L3.44766 12.1058Z" fill="#323338"/>
</svg>
